<?xml version="1.0" encoding="UTF-8"?>
<svg xmlns="http://www.w3.org/2000/svg" version="1.1" width="250" height="250" viewBox="0 0 250 250"><rect x="0" y="0" width="250" height="250" fill="#ffffff"/><g transform="scale(11.905)"><g transform="translate(0,0)"><path fill-rule="evenodd" d="M8 0L8 1L9 1L9 2L8 2L8 5L11 5L11 6L10 6L10 7L11 7L11 8L10 8L10 9L9 9L9 8L8 8L8 9L7 9L7 8L6 8L6 9L7 9L7 10L6 10L6 11L7 11L7 10L8 10L8 12L6 12L6 13L8 13L8 14L9 14L9 17L8 17L8 21L9 21L9 17L10 17L10 16L11 16L11 17L12 17L12 18L10 18L10 19L11 19L11 20L10 20L10 21L12 21L12 19L13 19L13 20L14 20L14 21L15 21L15 20L16 20L16 21L19 21L19 20L17 20L17 19L19 19L19 16L20 16L20 17L21 17L21 16L20 16L20 14L19 14L19 13L21 13L21 8L20 8L20 9L19 9L19 8L16 8L16 10L15 10L15 12L14 12L14 10L13 10L13 12L14 12L14 13L11 13L11 12L12 12L12 11L10 11L10 10L11 10L11 9L14 9L14 8L13 8L13 6L12 6L12 5L13 5L13 2L11 2L11 0L10 0L10 1L9 1L9 0ZM11 3L11 5L12 5L12 3ZM8 6L8 7L9 7L9 6ZM11 6L11 7L12 7L12 6ZM0 8L0 9L1 9L1 11L2 11L2 10L3 10L3 9L4 9L4 10L5 10L5 9L4 9L4 8ZM16 10L16 11L18 11L18 12L15 12L15 13L14 13L14 14L12 14L12 16L13 16L13 17L14 17L14 19L17 19L17 18L18 18L18 16L16 16L16 15L15 15L15 14L16 14L16 13L17 13L17 15L19 15L19 14L18 14L18 13L19 13L19 12L20 12L20 11L19 11L19 10ZM2 12L2 13L5 13L5 12ZM8 12L8 13L9 13L9 14L10 14L10 15L11 15L11 13L10 13L10 12ZM13 15L13 16L14 16L14 15ZM15 17L15 18L16 18L16 17ZM20 19L20 20L21 20L21 19ZM0 0L0 7L7 7L7 0ZM1 1L1 6L6 6L6 1ZM2 2L2 5L5 5L5 2ZM14 0L14 7L21 7L21 0ZM15 1L15 6L20 6L20 1ZM16 2L16 5L19 5L19 2ZM0 14L0 21L7 21L7 14ZM1 15L1 20L6 20L6 15ZM2 16L2 19L5 19L5 16Z" fill="#000000"/></g></g></svg>
